<svg xmlns="http://www.w3.org/2000/svg" xmlns:xlink="http://www.w3.org/1999/xlink" version="1.1" data-diagram-type="STATE" style="width:5330px;height:1471px;background:#FFFFFF;" width="5330.625px" height="1471.875px" viewBox="0 0 5330 1471" zoomAndPan="magnify" preserveAspectRatio="none" contentStyleType="text/css"><?plantuml 1.2026.8beta1?><defs/><g font-family="sans-serif" lengthAdjust="spacing"><rect x="5.625" y="5.625" width="5301.195" height="31.201" fill="#FFC" style="stroke:#FD8;stroke-width:5.625;" rx="4.688" ry="4.688"/><text x="18.75" y="25.576" fill="#000" font-size="18.75" textLength="553.134" font-family="monospace">Please use CSS style instead of skinparam padding</text><g class="entity" data-qualified-name="Normal" id="ent0001" data-source-line="25"><path d="M266.25,395.457 L2012.949,395.457 A11.25,11.25 0 0 1 2024.199,406.707 L2024.199,525.148 L255,525.148 L255,406.707 A11.25,11.25 0 0 1 266.25,395.457" fill="#F7F4FF"/><path d="M255,525.148 L2024.199,525.148 L2024.199,1043.574 A11.25,11.25 0 0 1 2012.949,1054.824 L266.25,1054.824 A11.25,11.25 0 0 1 255,1043.574 L255,525.148" fill="#F7F4FF"/><rect x="255" y="395.457" width="1769.199" height="659.366" fill="none" style="stroke:#A98CFF;stroke-width:0.938;" rx="11.25" ry="11.25"/><line x1="255" y1="525.148" x2="2024.199" y2="525.148" style="stroke:#A98CFF;stroke-width:0.938;"/><text x="1087.249" y="473.382" fill="#333" font-size="30" textLength="104.7" font-family="'Noto Sans CJK TC'">Normal</text><g class="entity" data-qualified-name="Normal.DefaultConversation" id="ent0002" data-source-line="26"><rect x="588.544" y="585.466" width="653.791" height="302.82" fill="#F7F4FF" style="stroke:#A98CFF;stroke-width:0.938;" rx="11.25" ry="11.25"/><line x1="588.544" y1="715.156" x2="1242.335" y2="715.156" style="stroke:#A98CFF;stroke-width:0.938;"/><text x="767.869" y="663.391" fill="#333" font-size="30" textLength="295.141" font-family="'Noto Sans CJK TC'">Default Conversation</text><text x="631.669" y="793.081" fill="#333" font-size="30" textLength="405.331" font-family="'Noto Sans CJK TC'">new message / replyCycle(...)</text><text x="631.669" y="836.522" fill="#333" font-size="30" textLength="548.791" font-family="'Noto Sans CJK TC'">new post / comment(Nice post, author)</text></g><g class="entity" data-qualified-name="Normal.Interacting" id="ent0003" data-source-line="27"><rect x="1309.838" y="585.466" width="669.361" height="302.82" fill="#F7F4FF" style="stroke:#A98CFF;stroke-width:0.938;" rx="11.25" ry="11.25"/><line x1="1309.838" y1="715.156" x2="1979.199" y2="715.156" style="stroke:#A98CFF;stroke-width:0.938;"/><text x="1567.703" y="663.391" fill="#333" font-size="30" textLength="153.63" font-family="'Noto Sans CJK TC'">Interacting</text><text x="1352.963" y="793.081" fill="#333" font-size="30" textLength="405.331" font-family="'Noto Sans CJK TC'">new message / replyCycle(...)</text><text x="1352.963" y="836.522" fill="#333" font-size="30" textLength="564.361" font-family="'Noto Sans CJK TC'">new post / comment(allOnlineMembers)</text></g><g class="start_entity" data-qualified-name="Normal..start.Normal" id="ent0010" data-source-line="29"><ellipse cx="502.294" cy="839.998" rx="18.75" ry="18.75" fill="#222" style="stroke:#222;stroke-width:1.875;"/></g><!--link *start*Normal to DefaultConversation--><g class="link" data-entity-1="ent0010" data-entity-2="ent0002" id="lnk11" data-source-line="29" data-link-type="dependency"><path d="M521.663,839.998 C536.981,839.998 551.025,839.998 578.963,839.998" style="stroke:#666;stroke-width:1.875;" fill="none" id="*start*Normal-to-DefaultConversation"/><polygon points="588.338,839.998,571.463,832.498,578.963,839.998,571.463,847.498,588.338,839.998" fill="#666" style="stroke:#666;stroke-width:1.875;stroke-linejoin:miter;stroke-miterlimit:10;"/><text x="311.25" y="798.898" fill="#333" font-size="24.375" textLength="208.796" font-family="'Noto Sans CJK TC'">[onlineCount &lt; 10]</text></g><!--link *start*Normal to Interacting--><g class="link" data-entity-1="ent0010" data-entity-2="ent0003" id="lnk12" data-source-line="30" data-link-type="dependency"><path d="M503.569,859.029 C503.569,883.254 503.569,922.029 503.569,922.029 C503.569,922.029 1645.444,922.029 1645.444,922.029 C1645.444,922.029 1645.444,917.96 1645.444,898.31" style="stroke:#666;stroke-width:1.875;" fill="none" id="*start*Normal-to-Interacting"/><polygon points="1645.444,888.935,1637.944,905.81,1645.444,898.31,1652.944,905.81,1645.444,888.935" fill="#666" style="stroke:#666;stroke-width:1.875;stroke-linejoin:miter;stroke-miterlimit:10;"/><text x="802.688" y="985.929" fill="#333" font-size="24.375" textLength="222.325" font-family="'Noto Sans CJK TC'">[onlineCount >= 10]</text></g><!--link DefaultConversation to Interacting--><g class="link" data-entity-1="ent0002" data-entity-2="ent0003" id="lnk13" data-source-line="37" data-link-type="dependency"><path d="M1243.181,787.348 C1265.119,787.348 1277.869,787.348 1299.844,787.348" style="stroke:#666;stroke-width:1.875;" fill="none" id="DefaultConversation-to-Interacting"/><polygon points="1309.219,787.348,1292.344,779.848,1299.844,787.348,1292.344,794.848,1309.219,787.348" fill="#666" style="stroke:#666;stroke-width:1.875;stroke-linejoin:miter;stroke-miterlimit:10;"/><text x="1101.981" y="851.248" fill="#333" font-size="24.375" textLength="57.013" font-family="'Noto Sans CJK TC'">login</text><text x="1019.325" y="886.543" fill="#333" font-size="24.375" textLength="222.325" font-family="'Noto Sans CJK TC'">[onlineCount >= 10]</text></g><!--link Interacting to DefaultConversation--><g class="link" data-entity-1="ent0003" data-entity-2="ent0002" id="lnk14" data-source-line="38" data-link-type="dependency"><path d="M1309.313,686.398 C1287.244,686.398 1274.419,686.398 1252.388,686.398" style="stroke:#666;stroke-width:1.875;" fill="none" id="Interacting-to-DefaultConversation"/><polygon points="1243.013,686.398,1259.888,693.898,1252.388,686.398,1259.888,678.898,1243.013,686.398" fill="#666" style="stroke:#666;stroke-width:1.875;stroke-linejoin:miter;stroke-miterlimit:10;"/><text x="1099.712" y="609.673" fill="#333" font-size="24.375" textLength="74.198" font-family="'Noto Sans CJK TC'">logout</text><text x="1032.413" y="644.968" fill="#333" font-size="24.375" textLength="208.796" font-family="'Noto Sans CJK TC'">[onlineCount &lt; 10]</text></g></g><g class="entity" data-qualified-name="Record" id="ent0004" data-source-line="41"><path d="M2241.694,53.701 L3565.328,53.701 A11.25,11.25 0 0 1 3576.578,64.951 L3576.578,183.391 L2230.444,183.391 L2230.444,64.951 A11.25,11.25 0 0 1 2241.694,53.701" fill="#F7F4FF"/><path d="M2230.444,183.391 L3576.578,183.391 L3576.578,672.849 A11.25,11.25 0 0 1 3565.328,684.099 L2241.694,684.099 A11.25,11.25 0 0 1 2230.444,672.849 L2230.444,183.391" fill="#F7F4FF"/><rect x="2230.444" y="53.701" width="1346.134" height="630.398" fill="none" style="stroke:#A98CFF;stroke-width:0.938;" rx="11.25" ry="11.25"/><line x1="2230.444" y1="183.391" x2="3576.578" y2="183.391" style="stroke:#A98CFF;stroke-width:0.938;"/><text x="2853.816" y="131.626" fill="#333" font-size="30" textLength="99.39" font-family="'Noto Sans CJK TC'">Record</text><g class="entity" data-qualified-name="Record.Waiting" id="ent0005" data-source-line="42"><rect x="2496.544" y="258.166" width="448.891" height="259.38" fill="#F7F4FF" style="stroke:#A98CFF;stroke-width:0.938;" rx="11.25" ry="11.25"/><line x1="2496.544" y1="387.856" x2="2945.434" y2="387.856" style="stroke:#A98CFF;stroke-width:0.938;"/><text x="2667.859" y="336.091" fill="#333" font-size="30" textLength="106.26" font-family="'Noto Sans CJK TC'">Waiting</text><text x="2539.669" y="465.781" fill="#333" font-size="30" textLength="343.891" font-family="'Noto Sans CJK TC'">entry / recorder retained</text></g><g class="entity" data-qualified-name="Record.Recording" id="ent0006" data-source-line="43"><rect x="3012.937" y="258.166" width="518.641" height="259.38" fill="#F7F4FF" style="stroke:#A98CFF;stroke-width:0.938;" rx="11.25" ry="11.25"/><line x1="3012.937" y1="387.856" x2="3531.578" y2="387.856" style="stroke:#A98CFF;stroke-width:0.938;"/><text x="3200.828" y="336.091" fill="#333" font-size="30" textLength="142.86" font-family="'Noto Sans CJK TC'">Recording</text><text x="3056.062" y="465.781" fill="#333" font-size="30" textLength="413.641" font-family="'Noto Sans CJK TC'">speak / record(voiceMessage)</text></g><g class="start_entity" data-qualified-name="Record..start.Record" id="ent0015" data-source-line="45"><ellipse cx="2410.294" cy="479.735" rx="18.75" ry="18.75" fill="#222" style="stroke:#222;stroke-width:1.875;"/></g><!--link *start*Record to Waiting--><g class="link" data-entity-1="ent0015" data-entity-2="ent0005" id="lnk16" data-source-line="45" data-link-type="dependency"><path d="M2429.737,479.735 C2445.263,479.735 2459.55,479.735 2486.775,479.735" style="stroke:#666;stroke-width:1.875;" fill="none" id="*start*Record-to-Waiting"/><polygon points="2496.15,479.735,2479.275,472.235,2486.775,479.735,2479.275,487.235,2496.15,479.735" fill="#666" style="stroke:#666;stroke-width:1.875;stroke-linejoin:miter;stroke-miterlimit:10;"/><text x="2286.694" y="438.635" fill="#333" font-size="24.375" textLength="141.741" font-family="'Noto Sans CJK TC'">[no speaker]</text></g><!--link *start*Record to Recording--><g class="link" data-entity-1="ent0015" data-entity-2="ent0006" id="lnk17" data-source-line="46" data-link-type="dependency"><path d="M2410.331,499.291 C2410.331,520.479 2410.331,551.304 2410.331,551.304 C2410.331,551.304 3272.831,551.304 3272.831,551.304 C3272.831,551.304 3272.831,547.029 3272.831,527.604" style="stroke:#666;stroke-width:1.875;" fill="none" id="*start*Record-to-Recording"/><polygon points="3272.831,518.229,3265.331,535.104,3272.831,527.604,3280.331,535.104,3272.831,518.229" fill="#666" style="stroke:#666;stroke-width:1.875;stroke-linejoin:miter;stroke-miterlimit:10;"/><text x="2620.238" y="615.204" fill="#333" font-size="24.375" textLength="176.451" font-family="'Noto Sans CJK TC'">[speaker exists]</text></g><!--link Waiting to Recording--><g class="link" data-entity-1="ent0005" data-entity-2="ent0006" id="lnk18" data-source-line="51" data-link-type="dependency"><path d="M2946,431.098 C2968.031,431.098 2981.138,431.098 3003.469,431.098" style="stroke:#666;stroke-width:1.875;" fill="none" id="Waiting-to-Recording"/><polygon points="3012.844,431.098,2995.969,423.598,3003.469,431.098,2995.969,438.598,3012.844,431.098" fill="#666" style="stroke:#666;stroke-width:1.875;stroke-linejoin:miter;stroke-miterlimit:10;"/><text x="2760.056" y="494.998" fill="#333" font-size="24.375" textLength="184.178" font-family="'Noto Sans CJK TC'">go broadcasting</text></g><!--link Recording to Waiting--><g class="link" data-entity-1="ent0006" data-entity-2="ent0005" id="lnk19" data-source-line="52" data-link-type="dependency"><path d="M3012.769,344.641 C2990.419,344.641 2977.312,344.641 2955.281,344.641" style="stroke:#666;stroke-width:1.875;" fill="none" id="Recording-to-Waiting"/><polygon points="2945.906,344.641,2962.781,352.141,2955.281,344.641,2962.781,337.141,2945.906,344.641" fill="#666" style="stroke:#666;stroke-width:1.875;stroke-linejoin:miter;stroke-miterlimit:10;"/><text x="2670.53" y="267.916" fill="#333" font-size="24.375" textLength="206.14" font-family="'Noto Sans CJK TC'">stop broadcasting</text><text x="2602.463" y="303.211" fill="#333" font-size="24.375" textLength="342.274" font-family="'Noto Sans CJK TC'">/ sendRecordReplay(recorder)</text></g></g><g class="entity" data-qualified-name="KnowledgeKing" id="ent0007" data-source-line="55"><path d="M3794.081,717.489 L5291.82,717.489 A11.25,11.25 0 0 1 5303.07,728.739 L5303.07,847.179 L3782.831,847.179 L3782.831,728.739 A11.25,11.25 0 0 1 3794.081,717.489" fill="#F7F4FF"/><path d="M3782.831,847.179 L5303.07,847.179 L5303.07,1434.031 A11.25,11.25 0 0 1 5291.82,1445.281 L3794.081,1445.281 A11.25,11.25 0 0 1 3782.831,1434.031 L3782.831,847.179" fill="#F7F4FF"/><rect x="3782.831" y="717.489" width="1520.239" height="727.793" fill="none" style="stroke:#A98CFF;stroke-width:0.938;" rx="11.25" ry="11.25"/><line x1="3782.831" y1="847.179" x2="5303.07" y2="847.179" style="stroke:#A98CFF;stroke-width:0.938;"/><text x="4432.926" y="795.414" fill="#333" font-size="30" textLength="220.05" font-family="'Noto Sans CJK TC'">KnowledgeKing</text><g class="entity" data-qualified-name="KnowledgeKing.Questioning" id="ent0008" data-source-line="56"><rect x="4180.05" y="921.879" width="502.681" height="302.82" fill="#F7F4FF" style="stroke:#A98CFF;stroke-width:0.938;" rx="11.25" ry="11.25"/><line x1="4180.05" y1="1051.569" x2="4682.731" y2="1051.569" style="stroke:#A98CFF;stroke-width:0.938;"/><text x="4346.07" y="999.804" fill="#333" font-size="30" textLength="170.64" font-family="'Noto Sans CJK TC'">Questioning</text><text x="4223.175" y="1129.494" fill="#333" font-size="30" textLength="184.68" font-family="'Noto Sans CJK TC'">answer @bot</text><text x="4223.175" y="1172.934" fill="#333" font-size="30" textLength="397.681" font-family="'Noto Sans CJK TC'">[first correct] / score(author)</text></g><g class="entity" data-qualified-name="KnowledgeKing.ThanksForJoining" id="ent0009" data-source-line="57"><rect x="4750.219" y="943.591" width="476.851" height="259.38" fill="#F7F4FF" style="stroke:#A98CFF;stroke-width:0.938;" rx="11.25" ry="11.25"/><line x1="4750.219" y1="1073.281" x2="5227.07" y2="1073.281" style="stroke:#A98CFF;stroke-width:0.938;"/><text x="4855.624" y="1021.516" fill="#333" font-size="30" textLength="266.041" font-family="'Noto Sans CJK TC'">Thanks For Joining</text><text x="4793.344" y="1151.206" fill="#333" font-size="30" textLength="371.851" font-family="'Noto Sans CJK TC'">entry / announceResult(...)</text></g><g class="start_entity" data-qualified-name="KnowledgeKing..start.KnowledgeKing" id="ent0020" data-source-line="59"><ellipse cx="4093.8" cy="1073.285" rx="18.75" ry="18.75" fill="#222" style="stroke:#222;stroke-width:1.875;"/></g><!--link *start*KnowledgeKing to Questioning--><g class="link" data-entity-1="ent0020" data-entity-2="ent0008" id="lnk21" data-source-line="59" data-link-type="dependency"><path d="M4113.413,1073.285 C4128.881,1073.285 4143.019,1073.285 4170.375,1073.285" style="stroke:#666;stroke-width:1.875;" fill="none" id="*start*KnowledgeKing-to-Questioning"/><polygon points="4179.75,1073.285,4162.875,1065.785,4170.375,1073.285,4162.875,1080.785,4179.75,1073.285" fill="#666" style="stroke:#666;stroke-width:1.875;stroke-linejoin:miter;stroke-miterlimit:10;"/><text x="3839.081" y="1137.185" fill="#333" font-size="24.375" textLength="272.903" font-family="'Noto Sans CJK TC'">entry / started + ask(Q0)</text></g><!--link Questioning to Questioning--><g class="link" data-entity-1="ent0008" data-entity-2="ent0008" id="lnk22" data-source-line="63" data-link-type="dependency"><path d="M4179.131,1158.354 C4159.5,1158.354 4147.069,1158.354 4147.069,1158.354 C4147.069,1158.354 4147.069,1258.441 4147.069,1258.441 C4147.069,1258.441 4717.069,1258.441 4717.069,1258.441 C4717.069,1258.441 4717.069,1213.835 4717.069,1213.835 C4717.069,1213.835 4713.263,1213.835 4692.563,1213.835" style="stroke:#666;stroke-width:1.875;" fill="none" id="Questioning-to-Questioning"/><polygon points="4683.188,1213.835,4700.063,1221.335,4692.563,1213.835,4700.063,1206.335,4683.188,1213.835" fill="#666" style="stroke:#666;stroke-width:1.875;stroke-linejoin:miter;stroke-miterlimit:10;"/><text x="4020.923" y="1331.716" fill="#333" font-size="24.375" textLength="236.755" font-family="'Noto Sans CJK TC'">correct answer @bot</text><text x="3917.756" y="1367.011" fill="#333" font-size="24.375" textLength="443.089" font-family="'Noto Sans CJK TC'">[question remains] / ask(nextQuestion)</text></g><!--link Questioning to ThanksForJoining--><g class="link" data-entity-1="ent0008" data-entity-2="ent0009" id="lnk23" data-source-line="64" data-link-type="dependency"><path d="M4683.112,1138.123 C4705.331,1138.123 4718.4,1138.123 4740.488,1138.123" style="stroke:#666;stroke-width:1.875;" fill="none" id="Questioning-to-ThanksForJoining"/><polygon points="4749.863,1138.123,4732.988,1130.623,4740.488,1138.123,4732.988,1145.623,4749.863,1138.123" fill="#666" style="stroke:#666;stroke-width:1.875;stroke-linejoin:miter;stroke-miterlimit:10;"/><text x="4752.113" y="1202.023" fill="#333" font-size="24.375" textLength="236.755" font-family="'Noto Sans CJK TC'">correct answer @bot</text><text x="4757.999" y="1237.318" fill="#333" font-size="24.375" textLength="224.981" font-family="'Noto Sans CJK TC'">[all questions done]</text></g><!--link Questioning to ThanksForJoining--><g class="link" data-entity-1="ent0008" data-entity-2="ent0009" id="lnk24" data-source-line="65" data-link-type="dependency"><path d="M4683.112,1073.285 C4705.331,1073.285 4718.4,1073.285 4740.488,1073.285" style="stroke:#666;stroke-width:1.875;" fill="none" id="Questioning-to-ThanksForJoining-1"/><polygon points="4749.863,1073.285,4732.988,1065.785,4740.488,1073.285,4732.988,1080.785,4749.863,1073.285" fill="#666" style="stroke:#666;stroke-width:1.875;stroke-linejoin:miter;stroke-miterlimit:10;"/><text x="4513.988" y="1137.185" fill="#333" font-size="24.375" textLength="167.554" font-family="'Noto Sans CJK TC'">1 hour elapsed</text></g><!--link ThanksForJoining to Questioning--><g class="link" data-entity-1="ent0009" data-entity-2="ent0008" id="lnk25" data-source-line="66" data-link-type="dependency"><path d="M4749.9,1008.429 C4727.738,1008.429 4714.613,1008.429 4692.356,1008.429" style="stroke:#666;stroke-width:1.875;" fill="none" id="ThanksForJoining-to-Questioning"/><polygon points="4682.981,1008.429,4699.856,1015.929,4692.356,1008.429,4699.856,1000.929,4682.981,1008.429" fill="#666" style="stroke:#666;stroke-width:1.875;stroke-linejoin:miter;stroke-miterlimit:10;"/><text x="4895.138" y="931.704" fill="#333" font-size="24.375" textLength="184.226" font-family="'Noto Sans CJK TC'">play again @bot</text><text x="4752.056" y="966.999" fill="#333" font-size="24.375" textLength="470.389" font-family="'Noto Sans CJK TC'">[quota >= 5] / decreaseQuota(5) + ask(Q0)</text></g></g><g class="start_entity" data-qualified-name=".start." id="ent0026" data-source-line="69"><ellipse cx="30" cy="725.139" rx="18.75" ry="18.75" fill="#222" style="stroke:#222;stroke-width:1.875;"/></g><!--link *start* to Normal--><g class="link" data-entity-1="ent0026" data-entity-2="ent0001" id="lnk27" data-source-line="69" data-link-type="dependency"><path d="M49.256,725.139 C82.931,725.139 148.781,725.139 244.8,725.139" style="stroke:#666;stroke-width:1.875;" fill="none" id="*start*-to-Normal"/><polygon points="254.175,725.139,237.3,717.639,244.8,725.139,237.3,732.639,254.175,725.139" fill="#666" style="stroke:#666;stroke-width:1.875;stroke-linejoin:miter;stroke-miterlimit:10;"/></g><!--link Normal to Record--><g class="link" data-entity-1="ent0001" data-entity-2="ent0004" id="lnk28" data-source-line="71" data-link-type="dependency"><path d="M2024.794,611.926 C2093.738,611.926 2153.288,611.926 2220.488,611.926" style="stroke:#666;stroke-width:1.875;" fill="none" id="Normal-to-Record"/><polygon points="2229.863,611.926,2212.988,604.426,2220.488,611.926,2212.988,619.426,2229.863,611.926" fill="#666" style="stroke:#666;stroke-width:1.875;stroke-linejoin:miter;stroke-miterlimit:10;"/><text x="2369.748" y="675.826" fill="#333" font-size="24.375" textLength="142.277" font-family="'Noto Sans CJK TC'">record @bot</text><text x="2373.1" y="711.121" fill="#333" font-size="24.375" textLength="135.574" font-family="'Noto Sans CJK TC'">[quota >= 3]</text><text x="2162.962" y="746.416" fill="#333" font-size="24.375" textLength="555.848" font-family="'Noto Sans CJK TC'">/ reply + decreaseQuota(3) + setRecorder(author)</text></g><!--link Record to Normal--><g class="link" data-entity-1="ent0004" data-entity-2="ent0001" id="lnk30" data-source-line="74" data-link-type="dependency"><path d="M2229.731,467.626 C2162.606,467.626 2103.15,467.626 2034.3,467.626" style="stroke:#666;stroke-width:1.875;" fill="none" id="Record-to-Normal"/><polygon points="2024.925,467.626,2041.8,475.126,2034.3,467.626,2041.8,460.126,2024.925,467.626" fill="#666" style="stroke:#666;stroke-width:1.875;stroke-linejoin:miter;stroke-miterlimit:10;"/><text x="1773.914" y="355.276" fill="#333" font-size="24.375" textLength="236.535" font-family="'Noto Sans CJK TC'">stop-recording @bot</text><text x="1777.741" y="390.571" fill="#333" font-size="24.375" textLength="228.881" font-family="'Noto Sans CJK TC'">[author == recorder]</text><text x="1692.319" y="425.866" fill="#333" font-size="24.375" textLength="399.726" font-family="'Noto Sans CJK TC'">/ sendRecordReplayIfAny(recorder)</text></g><!--link Normal to Record--><!--link Normal to KnowledgeKing--><g class="link" data-entity-1="ent0001" data-entity-2="ent0007" id="lnk29" data-source-line="72" data-link-type="dependency"><path d="M2024.906,987.357 C2570.213,987.357 3252.731,987.357 3773.213,987.357" style="stroke:#666;stroke-width:1.875;" fill="none" id="Normal-to-KnowledgeKing"/><polygon points="3782.588,987.357,3765.713,979.857,3773.213,987.357,3765.713,994.857,3782.588,987.357" fill="#666" style="stroke:#666;stroke-width:1.875;stroke-linejoin:miter;stroke-miterlimit:10;"/><text x="2660.159" y="1051.257" fill="#333" font-size="24.375" textLength="116.318" font-family="'Noto Sans CJK TC'">king @bot</text><text x="2586.181" y="1086.552" fill="#333" font-size="24.375" textLength="264.274" font-family="'Noto Sans CJK TC'">[Admin and quota >= 5]</text><text x="2568.131" y="1121.848" fill="#333" font-size="24.375" textLength="300.373" font-family="'Noto Sans CJK TC'">/ reply + decreaseQuota(5)</text></g><!--link KnowledgeKing to Normal--><g class="link" data-entity-1="ent0007" data-entity-2="ent0001" id="lnk31" data-source-line="75" data-link-type="dependency"><path d="M3782.344,919.895 C3261.919,919.895 2579.569,919.895 2034.338,919.895" style="stroke:#666;stroke-width:1.875;" fill="none" id="KnowledgeKing-to-Normal"/><polygon points="2024.963,919.895,2041.838,927.395,2034.338,919.895,2041.838,912.395,2024.963,919.895" fill="#666" style="stroke:#666;stroke-width:1.875;stroke-linejoin:miter;stroke-miterlimit:10;"/><text x="2598.038" y="878.795" fill="#333" font-size="24.375" textLength="271.27" font-family="'Noto Sans CJK TC'">king-stop @bot [Admin]</text></g><!--link KnowledgeKing to Normal--><g class="link" data-entity-1="ent0007" data-entity-2="ent0001" id="lnk32" data-source-line="76" data-link-type="dependency"><path d="M3782.344,852.432 C3261.919,852.432 2579.569,852.432 2034.338,852.432" style="stroke:#666;stroke-width:1.875;" fill="none" id="KnowledgeKing-to-Normal-1"/><polygon points="2024.963,852.432,2041.838,859.932,2034.338,852.432,2041.838,844.932,2024.963,852.432" fill="#666" style="stroke:#666;stroke-width:1.875;stroke-linejoin:miter;stroke-miterlimit:10;"/><text x="2939.763" y="775.707" fill="#333" font-size="24.375" textLength="220.765" font-family="'Noto Sans CJK TC'">20 seconds elapsed</text><text x="2939.288" y="811.002" fill="#333" font-size="24.375" textLength="221.715" font-family="'Noto Sans CJK TC'">[ThanksForJoining]</text></g><!--link Record to KnowledgeKing--><?plantuml-src ZLRVSzCu47xFNx7JUqdWMcfAkHv36KgWCz2XD_qnSm_53wgrSJon9ICfXC3mlxEIPKUotUlvfVRkj_ljQhzLMkB2W96WYdnfW1SACrD8CLaM706hsco1eyvKKJkpNXMYPefLe9UCoqqXSbYmKcFWAGk1PbiZI6MMCd0ekHOyaqgWWkHvuE1r0Sd9OM0HabYnXfFZC9w9bJKcIGYj6UUsZEGaCDwpR9KxlhaifO8_pjqJSkA2hKjpBeMvP1N2tgMaOxXXGiFyqmNSplV6mJxVaNi2o9bISkETBztJTpuQVRiiifL0hI49N3U66OIV4w3dtQ2jlyvVK5lE9nL7vUrdVv_ClNr8srflYXy8oKltJIng1FQXO_B6NvE9TWNHUQcAbNl0D3IllaRlVjyS6Sob-8PACoiV1_QEq1x6VHG65ICHYjp1W--9mzqzIM5__yrO7dW5Tr9O_StfZ0oyXkGmZOA2R7tmcrE7Tl3nt08tKD5uM8xm31JMvNQ-pKgS7XmSp1w9gwKs59J9ga9XffT5Xixs9x0rRObgukFo7kSRudiyh2p_SJr-nkgUIfeztD_mU4gP5-AB63kbFld30w4aScrwMPh1xBHqZNGjS3VlvZNMqh-iwFJWtqDt4z82kgzOBZxEJbr8q3Mo5QfO75sa1Na4uFT26-rriKj2XwksRYgPspjwCOpwumuNPdA9EkJqcwJHVswcEekpzcl89TmhoNZ6TDVopXytfOsi8_GNyGmq2ju4N9Dus7RQLZiBplv2o4s9FCUBzWGZIpo9gpLgEzWM6do7iDkblQhfab7mIHOTkZ6JrHlZ2GMvWWFMzc923ayfmMfwTTW8FyRIfRsX4RozbrPeYqBH3b2ZzhSijIde7QVXdlKB2VYO42JH3AzHavYRLHjG3ilrTBrIldeC3RyYTMXRZMr3u7VJniz6iuzKE4v16mujZGOk1QR_Ds42IxacXPUirbwu0zImKoiaO3cri-jI6cPlXcFR7yTC8TDuPQtJuramEH9TE-pc9sCoyJyTE-aJGwFIGVQZr6hQNOEKCwOviZGQpRKNU3Vj87yiwrUmidyyoHclg1ycE0JDF4ntJ9hmvUwQyLkuhxeLRKVaQe7Jq-wsICUsy-FYJ8Gh6jSRyTZIzztAMmfeoa__A-Bv8V5bKd3TpfiAwqyxtStZZlu1v2ZIRYvTlu4duliD?></g></svg>